# Exported from Wings 3D 1.5.3
mtllib Rock_1.mtl
o Cube2
#8 vertices, 6 faces
v -1.35227349 -1.10256509 -1.78434114
v -1.92186048 -0.77030687 1.40514559
v -0.57498360 0.45725375 -1.38319152
v -1.39827814 1.28092159 0.85672893
v 1.07284031 -0.73699484 -1.16881857
v 1.68761712 -1.12154641 0.68155032
v 0.12013175 0.71443064 -1.08958742
v 0.52625236 0.97967496 1.26626579
vt 0.0000000e+0 3.7389554e-2
vt 0.0000000e+0 0.33899515
vt 0.0000000e+0 0.65506646
vt 4.9957255e-2 0.26239766
vt 6.9460552e-2 0.53902073
vt 0.10351998 0.81038093
vt 0.18254574 0.77744062
vt 0.25634258 0.22472715
vt 0.26688275 0.60488832
vt 0.33068737 0.60488832
vt 0.38648153 0.26239766
vt 0.38795637 0.0000000e+0
vt 0.38795637 0.27300284
vt 0.41708479 0.18767836
vt 0.47763631 0.52460393
vt 0.55489643 0.49076518
vt 0.59589631 0.23960637
vt 0.68012426 0.23960637
vt 0.73358409 1.3590986e-2
vt 0.73358409 0.25758487
vt 0.79827948 0.0000000e+0
vt 0.99210483 0.25689399
vt 1.00000000 7.0260860e-2
vn -0.43207100 -0.34355082 -0.83383900
vn -0.65449844 -0.53352082 0.53571198
vn -0.27003497 0.67494685 -0.68667887
vn -0.48938583 0.81749380 0.30365341
vn 0.67019165 -0.19024809 -0.71739028
vn 0.69019353 -0.36712105 0.62358241
vn 0.47100644 0.68248348 -0.55890002
vn 0.51250723 0.79925971 0.31387936
g Cube2_Cube2_auv
usemtl Cube2_auv
s 1
f 1/10/1 5/5/5 6/2/6 2/11/2
f 2/19/2 4/18/4 3/14/3 1/12/1
f 2/1/2 6/12/6 8/8/8 4/4/4
f 3/7/3 7/6/7 5/3/5 1/9/1
f 4/13/4 8/17/8 7/16/7 3/15/3
f 5/23/5 7/22/7 8/20/8 6/21/6
o Cube1
#8 vertices, 6 faces
v -1.36951796 -1.29055564 -1.19367095
v -1.73320942 -0.91261002 1.55910858
v -0.91060867 0.55746042 -1.43184571
v -1.53872289 0.28497087 1.22796665
v 0.79004861 -1.69047888 -1.72058353
v 1.04184710 -1.56022332 0.73119813
v 0.46153804 0.33820365 -1.49994625
v 1.05032966 0.71871459 0.91921387
vt 0.0000000e+0 0.68665287
vt 0.0000000e+0 1.00000000
vt 2.7755576e-17 0.11594062
vt 2.9176882e-2 0.70241515
vt 3.3982595e-2 0.43758264
vt 3.4692922e-2 0.43758264
vt 0.32142629 0.36391267
vt 0.32636173 0.95575213
vt 0.35152637 0.68665287
vt 0.35634952 0.63707484
vt 0.37127621 0.0000000e+0
vt 0.39782414 0.95269169
vt 0.39885043 0.29757777
vt 0.39885043 0.47790511
vt 0.39885043 8.1438258e-2
vt 0.43500506 0.24106208
vt 0.48323092 0.64433676
vt 0.57695859 0.98346991
vt 0.64151880 0.74121529
vt 0.66350005 0.65782161
vt 0.73973237 0.33954991
vt 0.77431340 0.29757777
vt 0.77634237 0.0000000e+0
vn -0.70018148 -0.42751223 -0.57182094
vn -0.62394125 -0.51439176 0.58830131
vn -0.58032998 0.57209467 -0.57959020
vn -0.49587028 0.72945365 0.47117941
vn 0.41280679 -0.58073408 -0.70166836
vn 0.63015314 -0.53964927 0.55828817
vn 0.42577854 0.61190171 -0.66655002
vn 0.63970705 0.63066008 0.43936631
g Cube1_Cube1_auv
usemtl Cube1_auv
s 1
f 9/30/9 13/29/13 14/26/14 10/34/10
f 10/37/10 12/33/12 11/24/11 9/28/9
f 10/38/10 14/46/14 16/45/16 12/39/12
f 11/41/11 15/35/15 13/32/13 9/42/9
f 12/36/12 16/44/16 15/43/15 11/40/11
f 13/32/13 15/31/15 16/25/16 14/27/14
